# xmcd
#
# Track frame offsets:
#	150
#	11525
#	23062
#	34380
#	47182
#	60960
#	73870
#	84947
#
# Disc length: 1250 seconds
#
# Revision: 1
# Processed by: cddbd v1.5.2PL0 Copyright (c) Steve Scherf et al.
# Submitted via: CDmax 2.0
#
DISCID=5e04e008
DTITLE=Various Artist - Risque Blues: Sixty Minute Man
DYEAR=1995
DGENRE=Blues
TTITLE0=Billy Ward and the Dominoes - Sixty Minute Man
TTITLE1=Little Willie John - Leave My Kitten Alone
TTITLE2=Hank Ballard and the Midnighters - Sexy Ways
TTITLE3=Wynonie Harris - Lolly Pop Mama
TTITLE4=Bull Moose Jackson - I Want a Bowlegged Woman
TTITLE5=Roy Brown - Boogie At Midnight
TTITLE6=Wynonie Harris - Lovin' Machine
TTITLE7=Billy Ward and the Dominoes - You Can't Keep a Good Man Down
EXTD=LABEL =King Records, Inc.\nID =kscd1415\nUPC =012676-141529\nCOPYRIGH
EXTD=T =1995
EXTT0=
EXTT1=
EXTT2=
EXTT3=
EXTT4=
EXTT5=
EXTT6=
EXTT7=
PLAYORDER=
